<mxfile host="app.diagrams.net" agent="Mozilla/5.0 (Windows NT 10.0; Win64; x64) AppleWebKit/537.36 (KHTML, like Gecko) Chrome/129.0.0.0 Safari/537.36" version="24.7.17">
  <diagram name="PÃ¡gina-1" id="mrG2u1972JXSZvxdinB5">
    <mxGraphModel dx="1195" dy="622" grid="1" gridSize="10" guides="1" tooltips="1" connect="1" arrows="1" fold="1" page="1" pageScale="1" pageWidth="827" pageHeight="1169" math="0" shadow="0">
      <root>
        <mxCell id="0" />
        <mxCell id="1" parent="0" />
        <mxCell id="yCStNcr0KMR02gBaNQYF-6" value="" style="rounded=0;whiteSpace=wrap;html=1;dashed=1;fillColor=none;" vertex="1" parent="1">
          <mxGeometry x="220" y="110" width="710" height="510" as="geometry" />
        </mxCell>
        <mxCell id="yCStNcr0KMR02gBaNQYF-7" value="" style="rounded=0;whiteSpace=wrap;html=1;" vertex="1" parent="1">
          <mxGeometry x="240" y="170" width="130" height="290" as="geometry" />
        </mxCell>
        <mxCell id="yCStNcr0KMR02gBaNQYF-8" value="API GATEWAY" style="image;aspect=fixed;html=1;points=[];align=center;fontSize=12;image=img/lib/azure2/compute/Azure_Spring_Cloud.svg;" vertex="1" parent="1">
          <mxGeometry x="271" y="281" width="68" height="68" as="geometry" />
        </mxCell>
        <mxCell id="yCStNcr0KMR02gBaNQYF-23" value="" style="rounded=0;whiteSpace=wrap;html=1;" vertex="1" parent="1">
          <mxGeometry x="460" y="150" width="380" height="390" as="geometry" />
        </mxCell>
        <mxCell id="yCStNcr0KMR02gBaNQYF-24" value="USER-MSVC" style="image;aspect=fixed;html=1;points=[];align=center;fontSize=12;image=img/lib/azure2/compute/Azure_Spring_Cloud.svg;" vertex="1" parent="1">
          <mxGeometry x="510" y="430" width="68" height="68" as="geometry" />
        </mxCell>
        <mxCell id="yCStNcr0KMR02gBaNQYF-25" value="AUTH-MSVC" style="image;aspect=fixed;html=1;points=[];align=center;fontSize=12;image=img/lib/azure2/compute/Azure_Spring_Cloud.svg;" vertex="1" parent="1">
          <mxGeometry x="510" y="281" width="68" height="68" as="geometry" />
        </mxCell>
        <mxCell id="yCStNcr0KMR02gBaNQYF-28" value="PRODUCT-MSVC" style="image;aspect=fixed;html=1;points=[];align=center;fontSize=12;image=img/lib/azure2/compute/Azure_Spring_Cloud.svg;" vertex="1" parent="1">
          <mxGeometry x="690" y="170" width="68" height="68" as="geometry" />
        </mxCell>
        <mxCell id="yCStNcr0KMR02gBaNQYF-29" value="MERCHANT-MSVC" style="image;aspect=fixed;html=1;points=[];align=center;fontSize=12;image=img/lib/azure2/compute/Azure_Spring_Cloud.svg;" vertex="1" parent="1">
          <mxGeometry x="690" y="380" width="68" height="68" as="geometry" />
        </mxCell>
        <mxCell id="yCStNcr0KMR02gBaNQYF-30" style="edgeStyle=orthogonalEdgeStyle;rounded=0;orthogonalLoop=1;jettySize=auto;html=1;entryX=0.005;entryY=0.514;entryDx=0;entryDy=0;entryPerimeter=0;" edge="1" parent="1" source="yCStNcr0KMR02gBaNQYF-25" target="yCStNcr0KMR02gBaNQYF-28">
          <mxGeometry relative="1" as="geometry" />
        </mxCell>
        <mxCell id="yCStNcr0KMR02gBaNQYF-31" style="edgeStyle=orthogonalEdgeStyle;rounded=0;orthogonalLoop=1;jettySize=auto;html=1;entryX=0.005;entryY=0.524;entryDx=0;entryDy=0;entryPerimeter=0;" edge="1" parent="1" source="yCStNcr0KMR02gBaNQYF-25" target="yCStNcr0KMR02gBaNQYF-29">
          <mxGeometry relative="1" as="geometry" />
        </mxCell>
        <mxCell id="yCStNcr0KMR02gBaNQYF-32" style="edgeStyle=orthogonalEdgeStyle;rounded=0;orthogonalLoop=1;jettySize=auto;html=1;entryX=-0.037;entryY=0.495;entryDx=0;entryDy=0;entryPerimeter=0;" edge="1" parent="1" source="yCStNcr0KMR02gBaNQYF-8" target="yCStNcr0KMR02gBaNQYF-25">
          <mxGeometry relative="1" as="geometry" />
        </mxCell>
        <mxCell id="yCStNcr0KMR02gBaNQYF-33" style="edgeStyle=orthogonalEdgeStyle;rounded=0;orthogonalLoop=1;jettySize=auto;html=1;entryX=-0.012;entryY=0.498;entryDx=0;entryDy=0;entryPerimeter=0;" edge="1" parent="1" source="yCStNcr0KMR02gBaNQYF-8" target="yCStNcr0KMR02gBaNQYF-24">
          <mxGeometry relative="1" as="geometry" />
        </mxCell>
        <mxCell id="yCStNcr0KMR02gBaNQYF-35" value="" style="image;aspect=fixed;html=1;points=[];align=center;fontSize=12;image=img/lib/azure2/databases/Azure_Database_PostgreSQL_Server.svg;" vertex="1" parent="1">
          <mxGeometry x="800" y="490" width="82.5" height="110" as="geometry" />
        </mxCell>
      </root>
    </mxGraphModel>
  </diagram>
</mxfile>
